<svg width="30" height="30" viewBox="0 0 30 30" fill="none" xmlns="http://www.w3.org/2000/svg">
<g clip-path="url(#clip0_21_672)">
<path d="M15 0C11.0218 0 7.20644 1.58035 4.3934 4.3934C1.58035 7.20644 0 11.0218 0 15C0 18.9782 1.58035 22.7936 4.3934 25.6066C7.20644 28.4196 11.0218 30 15 30C18.9782 30 22.7936 28.4196 25.6066 25.6066C28.4196 22.7936 30 18.9782 30 15C30 11.0218 28.4196 7.20644 25.6066 4.3934C22.7936 1.58035 18.9782 0 15 0ZM13.0087 8.085C13.0087 7.58772 13.2063 7.11081 13.5579 6.75917C13.9096 6.40754 14.3865 6.21 14.8837 6.21C15.381 6.21 15.8579 6.40754 16.2096 6.75917C16.5612 7.11081 16.7587 7.58772 16.7587 8.085V13.2413H21.915C22.4123 13.2413 22.8892 13.4388 23.2408 13.7904C23.5925 14.1421 23.79 14.619 23.79 15.1163C23.79 15.6135 23.5925 16.0904 23.2408 16.4421C22.8892 16.7937 22.4123 16.9913 21.915 16.9913H16.7587V22.1475C16.7587 22.6448 16.5612 23.1217 16.2096 23.4733C15.8579 23.825 15.381 24.0225 14.8837 24.0225C14.3865 24.0225 13.9096 23.825 13.5579 23.4733C13.2063 23.1217 13.0087 22.6448 13.0087 22.1475V16.9913H7.8525C7.35522 16.9913 6.87831 16.7937 6.52667 16.4421C6.17504 16.0904 5.9775 15.6135 5.9775 15.1163C5.9775 14.619 6.17504 14.1421 6.52667 13.7904C6.87831 13.4388 7.35522 13.2413 7.8525 13.2413H13.0087V8.085Z" fill="white"/>
</g>
<defs>
<clipPath id="clip0_21_672">
<rect width="30" height="30" fill="white" transform="matrix(-1 0 0 1 30 0)"/>
</clipPath>
</defs>
</svg>
